<?xml version="1.0" encoding="utf-8"?>
<!-- Generator: Adobe Illustrator 26.0.2, SVG Export Plug-In . SVG Version: 6.00 Build 0)  -->
<svg version="1.1" id="Layer_1" xmlns="http://www.w3.org/2000/svg" xmlns:xlink="http://www.w3.org/1999/xlink" x="0px" y="0px"
	 viewBox="0 0 2000 2000" style="enable-background:new 0 0 2000 2000;" xml:space="preserve">
<style type="text/css">
	.st0{fill:none;}
	.st1{fill:#d4af7a;}
</style>
<rect class="st0" width="2000" height="2000"/>
<path class="st1" d="M655.7,1632c-51.8,0-59.8-59.7-69-128.5c-6.6-49.1-14-104.7-38.3-148.9c-15.6-28.5-38.5-53.5-60.5-77.6
	c-29.4-32.2-59.8-65.4-72.9-107c-6.6,31.8,20.2,60.4,41.9,83.7c6.9,7.4,13.5,14.4,18.2,20.7c7.1,9.5,9.8,17.8,8.3,25.3
	c-2.5,13-17.1,21.9-34,32.2c-1.6,1-3.2,1.9-4.8,2.9c-49.3,30.4-85.6,142.9-87.7,182.2c-2.4,44.2,19.1,66.6,31.9,80
	c6.5,6.7,11.1,11.6,10.5,16.6c-0.3,2.7-2.2,5.1-5.6,7.4c-6.4,4.1-69,10-128.9,0c-14.7-2.5-21.8-5.9-27.4-21.2
	c-19.5-53.2,5.2-105.8,29.1-156.6c11.6-24.6,22.5-47.9,28.4-70.8c9.6-36.9,9.6-60.8,9.6-86c0-48.9,0.1-104.1,67.1-270.6
	c-42.8,53.6-53.4,125.3-63.6,194.8c-9.6,65.5-19.6,133.3-56.1,187.8c-0.4,0.7-1.2,1-2,0.9c-0.8-0.1-1.4-0.7-1.6-1.5
	c-14.8-56.6-8.5-69.3,4.1-94.6c1.5-3,3.1-6.2,4.7-9.7c13-27.2,27.5-94.4,42.8-165.5c17.1-79.3,34.8-161.4,53.3-203.7
	c28.3-64.7,81-120.8,148.2-157.7c73.6-40.5,158.5-55.2,245.5-42.4c16.5,2.4,31.6,5.6,46.2,8.6c61.6,12.8,119.8,25,274.1-13.8
	c19.7-5,34.2-16.6,52.5-31.5c27.3-22.1,61.3-49.6,131-70.5c0.9-0.3,1.9,0.1,2.3,1c0.5,0.8,0.3,1.9-0.5,2.5
	c-8.4,7.1-17,14.2-25.3,21.1c-79.7,66.4-162.2,135-181.3,228.1c-3.2,15.6-2.2,27,3.2,34.7c7.5,11,23.1,13.6,38.1,16.1
	c8.6,1.4,17.5,2.9,24.8,6c13.3,5.7,23.2,16.7,32.8,27.3c10.4,11.5,20.2,22.4,33.9,27.1c11.7,4,24.6,2.8,37.1,1.6
	c13.2-1.3,26.8-2.6,39.4,2c7.3,2.6,14,7.1,20.4,12.1c23.3-14,49.2-22.1,76.3-23.3c1.1-9.6,1.6-19.6,1.6-29c0.1-36.2-5.9-76-9.9-91.5
	c-15.5-59.8-45.3-78.9-64.9-91.4c-12-7.7-20.7-13.3-19.9-24.4c0.7-9,5.2-14.3,12.8-14.9c22.1-1.7,66.2,38,79.4,94.4
	c6.9,29.6,15.6,44.4,43.5,43c18.4-0.9,41-11,48.1-30.9c-19.8-11.3-37.7-26.6-52.1-44.3c-6.9-8.6-8.4-16.8-4-22.1
	c4.3-5.2,12.9-5.8,21-1.4c2.3,1.3,4.5,2.8,6.6,4.2c3.8,2.7,7.5,5.2,11.7,6.1c4.3,1,9-0.2,13-3.1c3.2-2.4,5.4-5.6,6.3-9
	c-14.8,1.8-25.2-1.7-28.9-9.9c-3.8-8.4,0.8-19.7,11.7-28.7c11-9,19.6-8.2,24.8-5.9c9.3,4.1,14.7,15.3,15.2,24.4
	c0.3,4.9-1.6,12.6-4,22.3c-5.3,21.7-13.2,53.6-0.2,74.9c2.1-15.9,10.1-29.7,22.9-39c7.1-5.2,15.6-6.8,21.3-4.1
	c3,1.5,6.6,4.8,6.9,12.3c0.5,14.8-23.5,26.6-39.3,34.4c-3.3,1.6-6.3,3.1-8.3,4.2c0,1.8,0,3.5,0.1,5.3c1.7,25.4,17.9,48.7,43.4,62.5
	c37,20.1,88.6,20.2,122.7,0.2c14.8-8.7,32.4-24.7,34.7-52.6c-17.4,16.8-36.4,32.3-59.3,33c-14.2,0.4-29.6-9.2-36.6-22.9
	c-5.2-10.1-4.6-20.4,1.4-28.3c5.4-7.1,17.3-10.6,33.8-15.5c33.7-10,84.5-25.1,121.7-86c17.9-29.2,72-130,15.6-198.6
	c-54-65.6-121-44.4-174.9-27.3c-34.3,10.9-63.9,20.2-82.2,4.7c-7.6-6.4-11.4-12.9-11.6-19.8c-0.4-12.3,10.9-23,22.7-34.3
	c11.9-11.4,24.2-23.1,22.9-35.9c-0.4-4.4-3.5-10.7-10.6-13.8c-6.4-2.8-20.7-4.7-44.8,13.5c-0.6,0.4-1.4,0.5-2,0.2
	c-0.7-0.3-1.1-0.9-1.2-1.7c-0.7-8.4-1.3-15.3-1.7-21.1c-2.1-25.8-2.3-27.8-5-30.9c-3-3.3-6.5-3.9-10.7-1.7
	c-10.8,5.4-23.7,26.6-32.8,54c-10.2,30.4-13.4,61-8.9,83.9c7.8,39.3,43.3,79.3,87.3,75.3c11.5-1,26.2-5.1,41.8-9.4
	c35.4-9.8,75.6-20.9,101.7-4.9c12.1,7.4,20.2,20.4,23.9,38.4c4.4,21.5-0.9,40.6-15.3,55.1c-25,25.1-72.1,32-103.6,25.7
	c-21.5-4.3-41.5-12.2-64.6-21.2c-44.7-17.6-100.3-39.4-192.1-42.5c-1.1,0-2-1-1.9-2.1s0.9-2,2.1-1.9c92.5,3.1,148.5,25.1,193.5,42.7
	c23,9,42.8,16.8,63.9,21c30.5,6.1,76-0.4,100-24.5c13.6-13.7,18.4-31,14.3-51.5c-3.5-17.1-10.7-28.8-22-35.8
	c-24.6-15.1-63.9-4.2-98.5,5.3c-15.8,4.4-30.7,8.5-42.5,9.6c-20.7,1.9-41.7-5.8-59.2-21.6c-16.4-14.8-28.2-35.5-32.4-56.9
	c-4.6-23.5-1.3-54.9,9.1-85.9c9.5-28.3,23.2-50.4,34.8-56.3c5.9-3,11.2-2,15.5,2.6c3.7,4.1,3.9,6.3,6.1,33.3
	c0.4,4.9,0.9,10.7,1.4,17.5c22.8-16.3,37.5-15.5,45.9-11.8c8.7,3.8,12.5,11.6,13,17c1.5,14.7-11.6,27.2-24.2,39.2
	c-11.2,10.7-21.8,20.8-21.5,31.3c0.2,5.7,3.5,11.2,10.2,16.8c16.6,14.1,45.2,5,78.4-5.5c55-17.4,123.5-39.1,179.2,28.6
	c22.2,27,30.3,61.3,24.1,102.1c-6.1,40.5-24.8,77.3-39.4,101.1c-38,62.1-89.8,77.5-124,87.7c-15.2,4.5-27.1,8.1-31.7,14.1
	c-7,9.1-3.6,19-1,24.1c6.3,12.4,20.2,21.1,32.9,20.7c23.1-0.6,41.7-17.1,60.3-35.4c0.6-0.6,1.5-0.7,2.2-0.4c0.7,0.3,1.2,1.1,1.2,1.9
	c-0.5,32.8-20.3,51.3-36.9,61c-17.6,10.3-39.6,15.4-62.1,15.4c-22.5,0-45.5-5.2-64.6-15.6c-26.7-14.5-43.7-39.1-45.5-65.8
	c-0.2-2.4-0.2-4.8-0.1-7.2c-17.8-22.7-9-58.4-3.2-82.2c2.2-9,4.2-16.8,3.9-21.1c-0.4-7.6-5.1-17.5-12.8-20.9
	c-6.1-2.7-13.2-0.8-20.7,5.3c-9.3,7.7-13.6,17.3-10.6,23.9c3.1,6.8,13.1,9.5,27.3,7.2c0.6-0.1,1.2,0.1,1.7,0.5
	c0.5,0.4,0.7,1,0.7,1.6c-0.4,5.5-3.4,10.8-8.3,14.5c-4.9,3.7-10.8,5.1-16.2,3.9c-5-1.1-9.1-4-13.1-6.7c-2-1.4-4.1-2.8-6.2-4
	c-6.2-3.4-12.9-3.2-15.9,0.5c-3.1,3.7-1.6,10,4.1,17c14.3,17.7,32.4,33,52.3,44.1c0.8,0.5,1.2,1.4,0.9,2.3
	c-7,22.8-32,34.3-52.2,35.3c-1.2,0.1-2.4,0.1-3.6,0.1c-30.6,0-38.1-20.9-44-46.2c-13.1-56.1-56.7-92.7-75.2-91.3
	c-5.5,0.4-8.6,4.2-9.1,11.2c-0.6,8.7,6.8,13.5,18.1,20.7c20.2,12.9,50.7,32.4,66.7,93.8c4.1,15.7,10.1,56,10,92.6
	c0,9.3-0.4,19.2-1.6,28.8c1.5,0,3,0,4.5,0c4.2,0,8.6,0.2,12.9,0.4c19.9,0.8,40.5,1.6,54.8-10.8c28.9-25,49.4-22.1,86.7-17l0.1,0
	c-6.9-14.9-22.4-25.7-38.8-26.9c-1.1-0.1-1.9-1-1.9-2.1c0.1-1.1,1.1-2,2.1-1.9c19.1,1.3,37,14.7,43.7,32.6c0.2,0.7,0.1,1.4-0.3,2
	c-0.4,0.5-1.1,0.8-1.8,0.7l-3.5-0.5c-37.3-5.1-56-7.7-83.5,16.1c-15.5,13.4-36.9,12.6-57.6,11.8c-4.2-0.2-8.6-0.3-12.8-0.4
	c-1.7,0-3.3,0-5,0c-3.2,23.2-10.9,43.7-27.5,48.2c-17.6,4.8-32.1-7.1-46.1-18.7c-2.1-1.8-4.3-3.5-6.5-5.2
	c-27.1,16.9-50.4,42-67.4,73.9c-36.1,67.4-34.9,147,2.9,202.8c12.5,18.4,23.5,32.9,32.4,44.6c22.5,29.5,33.8,44.4,30.6,71.1
	c-3.2,26.2-20.6,63.7-55.3,138.3c-4.8,10.4-10,21.6-15.6,33.5c-3.8,8.1-9.6,12.6-17.2,13.3c-0.7,0.1-1.4,0.1-2.1,0.1
	c-27.8,0-70.8-47.7-87.7-71.5c-5.9-8.3-8-15.2-6.3-21c2.7-9.6,15.1-14.9,29.3-20.9c16.9-7.2,36.1-15.3,47-32.7
	c4.5-7.3,6-13.9,4.6-20.2c-3.9-16.5-28.1-31.4-61.7-52.1c-3.6-2.2-7.3-4.5-11.2-6.9c-2.1,39.5-7.4,72.8-11.9,101.7
	c-8,50.6-13.2,84,5.8,110c3.5,4.8,7.9,9.2,12.1,13.6c8.6,8.8,17.4,17.9,19.9,30.2c0.2,1.1-0.5,2.1-1.6,2.4
	c-42.8,8.8-86.4,10.4-129.6,4.7c-13.1-1.7-21.4-6.1-25.3-13.4c-6.6-12.4,1.1-31.6,10.4-50.5c13.7-27.9,20.4-88.5,16.9-154.3
	c-3.7-70.2-17.4-131.1-37.7-167.8c-27.3,34.2-65.8,57.8-114.5,69.9c-40.1,10-87.3,12.7-144.3,8.2c-14.5-1.1-22.9,0.4-28.2,5.2
	c-5.1,4.6-7.6,12.8-7.8,25.7c-1.5,82,39.3,162.1,106.5,209.1c17,11.9,24.1,23.5,21,34.5c-3.9,14.1-24.5,26.4-61.1,36.5
	c-28.7,7.9-58.7,11.9-67.9,12.5C658.8,1632,657.2,1632,655.7,1632z M414.9,1160.7C414.9,1160.7,415,1160.7,414.9,1160.7
	c1,0,1.7,0.6,1.9,1.5c11.6,43.9,41.9,77.1,74,112.2c22.2,24.3,45.2,49.5,61.1,78.4c24.6,44.8,32.1,100.8,38.7,150.3
	c9.6,71.7,17.2,128.3,69.5,124.9c24.3-1.6,117.4-17.2,125.4-46.1c2.6-9.2-4-19.3-19.5-30.1c-33.3-23.3-61-55.4-80.1-93
	c-19.1-37.6-28.8-78.9-28.1-119.5c0.3-14.1,3.2-23.2,9.2-28.6c6.2-5.6,15.5-7.5,31.3-6.3c124.5,9.8,208.6-16.1,257.1-79
	c0.4-0.5,1.1-0.8,1.7-0.8c0.7,0,1.3,0.4,1.6,1c21.4,37,35.9,99.8,39.7,172.2c3.6,67.5-3,127.4-17.3,156.3
	c-8.8,17.9-16.2,36-10.4,46.8c3.2,6.1,10.5,9.8,22.3,11.3c42.1,5.6,84.6,4.2,126.3-4.2c-2.7-10.2-10.3-18-18.3-26.2
	c-4.3-4.4-8.8-9-12.4-14c-20-27.3-14.6-61.4-6.5-113c4.6-29.3,10-63.2,12-103.5c-5.6-3.5-11.5-7.2-17.5-11.1
	c-52.6-34-68.2-52.4-78.2-116.9l-0.6-3.8c-7.4-47.8-18.6-120.1,13.1-136.4c9.3-4.8,19.8-5,29.5-0.5c11.7,5.4,27.6,20,36.8,58.6
	c20.1,84.8,23.7,152.5,21.1,208c4.6,2.8,8.9,5.5,13.1,8.1c35.7,22,59.3,36.5,63.5,54.6c1.7,7.4,0.1,15-5.1,23.2
	c-11.5,18.5-32.2,27.2-48.8,34.3c-13.3,5.7-24.8,10.5-27,18.3c-1.3,4.6,0.6,10.4,5.7,17.6c20.9,29.4,62.7,71.9,86.1,69.7
	c6.2-0.6,10.8-4.2,13.9-11c5.5-11.9,10.7-23.1,15.6-33.5c34.5-74.2,51.8-111.5,54.9-137.1c3-25.1-7.9-39.5-29.8-68.2
	c-8.9-11.7-20-26.2-32.5-44.8c-38.6-57-39.9-138.2-3.1-206.9c17.1-32,40.4-57.3,67.6-74.6c-5.8-4.4-11.8-8.3-18.2-10.6
	c-11.8-4.3-24.3-3.1-37.7-1.8c-13,1.2-26.4,2.5-38.8-1.8c-14.7-5.1-25.3-16.8-35.5-28.2c-9.3-10.3-18.9-21-31.4-26.3
	c-6.8-2.9-15.1-4.3-23.9-5.8c-15.9-2.7-32.3-5.4-40.8-17.8c-6-8.7-7.2-21.1-3.8-37.8c19.4-94.5,102.4-163.6,182.7-230.4
	c5.8-4.8,11.7-9.8,17.6-14.7c-62.5,20.3-94.3,46-120.1,66.8c-18.7,15.1-33.5,27-54.1,32.2c-155.2,39-213.8,26.8-275.9,13.9
	c-14.6-3-29.7-6.2-46-8.6C551,699.4,407.6,810.5,357.1,925.9c-18.4,41.9-36,123.8-53.1,202.9c-15.4,71.3-29.9,138.7-43.1,166.4
	c-1.7,3.5-3.2,6.7-4.8,9.7c-12.2,24.5-18,36.1-5,87.4c34-53.1,43.6-118.8,53-182.3c10.9-74.2,22.2-150.9,72.6-206.3
	c0.7-0.7,1.7-0.9,2.6-0.3c0.8,0.5,1.2,1.6,0.8,2.5c-71.3,174.7-71.4,231-71.4,280.6c0,25.5,0,49.6-9.7,87c-6,23.3-17,46.7-28.7,71.5
	c-23.6,50.1-47.9,101.9-29,153.5c4.9,13.4,10.1,16.3,24.3,18.6c60.6,10.1,121.2,3.7,126.1,0.6c2.4-1.6,3.7-3,3.8-4.5
	c0.4-3.1-4-7.6-9.4-13.4c-13.3-13.8-35.5-37-33.1-82.9c1-18.1,9.6-55.7,26.4-95.7c18.6-44.2,41-76.1,63.2-89.8c1.6-1,3.2-2,4.8-2.9
	c16.1-9.8,30-18.3,32.2-29.6c1.2-6.4-1.3-13.6-7.6-22.1c-4.6-6.2-11.1-13.1-17.9-20.4c-24-25.7-53.9-57.7-40.9-94.4
	C413.3,1161.2,414.1,1160.7,414.9,1160.7z M1026,1083.4c-4.6,0-9.1,1.1-13.3,3.3c-29.1,14.9-18.2,85.5-11,132.2l0.6,3.8
	c9.8,63.5,24.2,80.4,76.4,114.2c5.3,3.4,10.5,6.7,15.6,9.9c2.4-54.8-1.4-121.5-21-204.7c-6.8-28.9-19.1-48.8-34.5-55.9
	C1034.5,1084.3,1030.3,1083.4,1026,1083.4z M1279.3,999.4c1.8,1.4,3.6,2.9,5.3,4.4c13.8,11.4,26.9,22.2,42.5,17.9
	c14.6-4,21.5-22.7,24.6-44.2C1326.1,978.7,1301.5,986.3,1279.3,999.4z M1501.7,795.7c-3.9,0-8.6,1.6-12.7,4.6
	c-12.5,9.2-20.1,23-21.6,38.9c1.8-0.9,4-2,6.3-3.2c14-6.9,37.5-18.4,37.1-30.6c-0.2-4.4-1.7-7.4-4.6-8.8
	C1505,796,1503.4,795.7,1501.7,795.7z"/>
</svg>
